<svg xmlns="http://www.w3.org/2000/svg" viewBox="0 0 101 164.15"><defs><style>.cls-1,.cls-2,.cls-3{stroke:#000;stroke-miterlimit:10;}.cls-2{stroke-width:3px;}.cls-3{fill:none;stroke-width:6px;}</style></defs><title>Asset 4</title><g id="Layer_2" data-name="Layer 2"><g id="Layer_1-2" data-name="Layer 1"><path class="cls-1" d="M50.5.5C22.89.5.5,28.29.5,62.58c0,31.67,27.17,62,50,62.08h.3c22.84-.23,49.7-30.58,49.7-62.08C100.5,28.29,78.11.5,50.5.5ZM31.88,28.82c-4.73,2.74-7.11,8-7.95,13.19-.57,3.57-6,2.05-5.42-1.49C19.58,33.89,23.12,27.4,29.05,24,32.19,22.16,35,27,31.88,28.82Zm1.61-12.46c-8.77,5.5-18.15,12-18.7,23.3-.18,3.6-5.8,3.61-5.62,0C9.83,26.09,20,18.18,30.66,11.51,33.73,9.59,36.55,14.45,33.49,16.36Z"/><path class="cls-2" d="M55.56,124.1c-1.86,10.08-.82,12.93.56,13.59,2.85,1.37,8.31-6.14,15.17-4.53,1.2.29,2.13.77,2.24.57.36-.62-7.67-5.95-15.16-10.76"/><path class="cls-3" d="M53.31,124.66c-4.77,4.9-9.82,11.73-8.43,18.54,1,4.8,4.63,6.9,3.93,10.11-.59,2.73-4.25,6-18.53,7.86"/></g></g></svg>