<svg xmlns="http://www.w3.org/2000/svg" viewBox="0 0 97 110.63"><defs><style>.cls-1{fill:none;}.cls-1,.cls-2{stroke:#000;stroke-linecap:round;stroke-linejoin:round;stroke-width:7px;}</style></defs><title>Asset 7</title><g id="Layer_2" data-name="Layer 2"><g id="Layer_1-2" data-name="Layer 1"><polygon class="cls-1" points="27.1 3.5 70.45 3.5 72.65 7.41 66.06 20.12 66.06 30.39 93.5 92.96 90.76 102.73 81.98 107.13 15.02 107.13 5.7 101.76 3.5 93.94 30.39 31.36 31.49 20.61 24.9 7.41 27.1 3.5"/><path class="cls-2" d="M64.32,50.43H34.13L13.28,95.89l4.94,2.93h62l3.84-3.42Zm9.13,35.11C67.74,89,65.28,95.66,57.6,95.74c-6.85.08-11.23-5.29-12.92-11.43-1.48-5.38,0-10.69-.88-16.06-1.22-7.44-7.79,4.22-8,7.24-.49,6.38-10.49,6.41-10,0,.52-6.79,5-16.14,11.64-19A11.47,11.47,0,0,1,53,63.73c1.81,5.88-.33,12.11,1.31,17.92,1,3.62,2.89,5.31,6.13,2.48,2.76-2.42,4.73-5.29,8-7.23C73.93,73.57,79,82.22,73.45,85.54Z"/></g></g></svg>