<svg xmlns="http://www.w3.org/2000/svg" viewBox="0 0 185 101"><defs><style>.cls-1,.cls-2,.cls-3{fill:none;stroke:#000;stroke-miterlimit:10;}.cls-1{stroke-linecap:round;stroke-width:17px;}.cls-2{stroke-width:16px;}.cls-3{stroke-width:5px;}</style></defs><title>Asset 1</title><g id="Layer_2" data-name="Layer 2"><g id="Layer_1-2" data-name="Layer 1"><path class="cls-1" d="M176.5,8.5s0,84-84,84-84-84-84-84"/><line class="cls-2" x1="8.5" y1="15.5" x2="176.5" y2="15.5"/><path class="cls-3" d="M105.24,35.92c-.16.23-3.47,5.22-1,10.1,1.58,3.17,5.22,5.57,6.49,4.73.9-.6,1.11-3.2-3.09-13.11"/><path class="cls-3" d="M68.08,36.33c-.23.12-5.12,2.78-5.26,7.84-.08,3.29,1.86,6.85,3.27,6.71,1-.1,2.31-2.14,3.17-12.11"/><path class="cls-3" d="M89.5,37.5c-.24.15-5.43,3.46-5.16,9.09.17,3.66,2.61,7.47,4.15,7.21,1.1-.19,2.38-2.56,2.52-13.68"/><path class="cls-3" d="M125,35.29c-.17.21-3.71,4.89-1.37,10.06,1.52,3.36,5.19,6.16,6.51,5.44.95-.51,1.23-3.11-2.77-13.53"/><path class="cls-3" d="M50.33,32.67c-.29.07-6.63,1.74-8.19,7.5-1,3.74.21,8.36,1.85,8.59,1.18.17,3.24-1.81,7-13"/></g></g></svg>