<svg xmlns="http://www.w3.org/2000/svg" viewBox="0 0 126 143"><defs><style>.cls-1{fill:none;stroke:#000;stroke-linecap:round;stroke-linejoin:round;stroke-width:4px;}</style></defs><title>Asset 5</title><g id="Layer_2" data-name="Layer 2"><g id="Layer_1-2" data-name="Layer 1"><path d="M90.12,23.13c-.23.41-.43.84-.64,1.26,1,4.46-.47,10-1.76,14-.3,1-.6,1.91-.89,2.87-.22.78-.46,1.56-.71,2.33a62.77,62.77,0,0,1-2.2,6.22c-2,4.8-5.14,8.86-8.45,12.86a5.72,5.72,0,0,1-1,.93c-4.21,5.23-9.74,9-16.47,11.89A55.14,55.14,0,0,1,22,78c-6.64-1.68-13.75-4.16-19.1-8.64-.76.83-1.54,1.63-2.33,2.43A63,63,0,1,0,90.12,23.13Z"/><polyline class="cls-1" points="48.99 26 75.99 26 48.99 44 73.99 44"/><polyline class="cls-1" points="7.99 2 39.99 2 7.99 23 37.62 23"/><polyline class="cls-1" points="23.99 51 39.99 51 23.99 64 38.8 64"/></g></g></svg>