<svg xmlns="http://www.w3.org/2000/svg" viewBox="0 0 122 122"><defs><style>.cls-1,.cls-2{stroke:#000;}.cls-1{stroke-linecap:round;stroke-linejoin:round;stroke-width:7px;}.cls-2{fill:#fff;stroke-miterlimit:10;stroke-width:5px;}</style></defs><title>Asset 3</title><g id="Layer_2" data-name="Layer 2"><g id="Layer_1-2" data-name="Layer 1"><path class="cls-1" d="M106.5,3.5h-91a12,12,0,0,0-12,12v91a12,12,0,0,0,12,12h91a12,12,0,0,0,12-12v-91A12,12,0,0,0,106.5,3.5ZM88.27,46.59c.23,1.91.23,1.91-.77,3.91-.74.54-4.17.3-5.33.3-8.55,0-17.12-.13-25.67-.3-3.58-.07-7,0-11,0-3.3.06-6.3.2-9.62.35a30.6,30.6,0,0,1-4.38-.35c-2-2-2-1-2.07-7.22,0-.06.06-.09.09-.14-.27-17.52,18.92-25.42,34.09-24,7.8.74,14.6,4.11,19.28,10.49C85.58,33.34,87.67,41.5,88.27,46.59Z"/><path class="cls-2" d="M54.13,40c-1,.59-3.66-1.44-4.64-4-.51-1.33-.81-3.43,0-4s2.84.87,3.87,2.39C54.72,36.49,55.08,39.48,54.13,40Z"/></g></g></svg>